<svg xmlns="http://www.w3.org/2000/svg" width="44" height="44" viewBox="0 0 44 44"><defs><style>.a{fill:#c7c7c7;}.b{fill:#a0a0a0;opacity:0;}</style></defs><g transform="translate(-0.261 277.457)"><path class="a" d="M17.5,2A15.5,15.5,0,1,0,33,17.5,15.506,15.506,0,0,0,17.5,2Zm0,4.65a4.65,4.65,0,1,1-4.65,4.65A4.644,4.644,0,0,1,17.5,6.65Zm0,22.01a11.161,11.161,0,0,1-9.3-4.991c.047-3.085,6.2-4.774,9.3-4.774,3.084,0,9.253,1.69,9.3,4.774A11.161,11.161,0,0,1,17.5,28.66Z" transform="translate(5.261 -272.946)"/><rect class="b" width="44" height="44" transform="translate(0.261 -277.457)"/></g></svg>